<svg width="52" height="40" viewBox="0 0 52 40" fill="none" xmlns="http://www.w3.org/2000/svg">
<g filter="url(#filter0_di_156_9)">
<g clip-path="url(#paint0_diamond_156_9_clip_path)" data-figma-skip-parse="true"><g transform="matrix(7.42946e-10 0.0145 -0.0200582 8.66309e-10 29.8151 16.815)"><rect x="0" y="0" width="1181.38" height="1302.71" fill="url(#paint0_diamond_156_9)" opacity="1" shape-rendering="crispEdges"/><rect x="0" y="0" width="1181.38" height="1302.71" transform="scale(1 -1)" fill="url(#paint0_diamond_156_9)" opacity="1" shape-rendering="crispEdges"/><rect x="0" y="0" width="1181.38" height="1302.71" transform="scale(-1 1)" fill="url(#paint0_diamond_156_9)" opacity="1" shape-rendering="crispEdges"/><rect x="0" y="0" width="1181.38" height="1302.71" transform="scale(-1)" fill="url(#paint0_diamond_156_9)" opacity="1" shape-rendering="crispEdges"/></g></g><path d="M35.3218 0.430912C37.3217 1.93091 46.8218 15.4309 46.8218 15.4309C46.8218 15.4309 39.3212 29.4309 35.3218 30.9309C31.3224 32.4309 3.8218 18.4309 4.3218 15.4309C4.8218 12.4309 33.3219 -1.06909 35.3218 0.430912Z" data-figma-gradient-fill="{&#34;type&#34;:&#34;GRADIENT_DIAMOND&#34;,&#34;stops&#34;:[{&#34;color&#34;:{&#34;r&#34;:0.0,&#34;g&#34;:0.23942302167415619,&#34;b&#34;:0.043894235044717789,&#34;a&#34;:0.95999997854232788},&#34;position&#34;:0.0},{&#34;color&#34;:{&#34;r&#34;:0.0,&#34;g&#34;:0.33076936006546021,&#34;b&#34;:0.060641065239906311,&#34;a&#34;:1.0},&#34;position&#34;:0.51923078298568726},{&#34;color&#34;:{&#34;r&#34;:0.0,&#34;g&#34;:0.53076934814453125,&#34;b&#34;:0.097307741641998291,&#34;a&#34;:1.0},&#34;position&#34;:1.0}],&#34;stopsVar&#34;:[{&#34;color&#34;:{&#34;r&#34;:0.0,&#34;g&#34;:0.23942302167415619,&#34;b&#34;:0.043894235044717789,&#34;a&#34;:0.95999997854232788},&#34;position&#34;:0.0},{&#34;color&#34;:{&#34;r&#34;:0.0,&#34;g&#34;:0.33076936006546021,&#34;b&#34;:0.060641065239906311,&#34;a&#34;:1.0},&#34;position&#34;:0.51923078298568726},{&#34;color&#34;:{&#34;r&#34;:0.0,&#34;g&#34;:0.53076934814453125,&#34;b&#34;:0.097307741641998291,&#34;a&#34;:1.0},&#34;position&#34;:1.0}],&#34;transform&#34;:{&#34;m00&#34;:1.4858912891213549e-06,&#34;m01&#34;:-40.116378784179688,&#34;m02&#34;:49.873252868652344,&#34;m10&#34;:29.000001907348633,&#34;m11&#34;:1.7326177612631000e-06,&#34;m12&#34;:2.3150007724761963},&#34;opacity&#34;:1.0,&#34;blendMode&#34;:&#34;NORMAL&#34;,&#34;visible&#34;:true}" shape-rendering="crispEdges"/>
<path d="M35.3218 0.430912C37.3217 1.93091 46.8218 15.4309 46.8218 15.4309C46.8218 15.4309 39.3212 29.4309 35.3218 30.9309C31.3224 32.4309 3.8218 18.4309 4.3218 15.4309C4.8218 12.4309 33.3219 -1.06909 35.3218 0.430912Z" stroke="#035800" stroke-opacity="0.85" stroke-width="0.63" shape-rendering="crispEdges"/>
</g>
<path d="M44.3151 16.1174C42.1854 12.0917 33.5102 -0.75423 35.6525 6.48801C37.7948 13.7303 37.6552 17.7917 35.6525 25.0335C33.6499 32.2754 42.0543 20.3351 44.3151 16.1174Z" fill="url(#paint1_linear_156_9)" fill-opacity="0.57"/>
<path d="M13.8151 20.315L6.31506 15.815L13.573 11.9441L13.8151 20.315Z" fill="url(#paint2_linear_156_9)" fill-opacity="0.46"/>
<defs>
<filter id="filter0_di_156_9" x="0" y="0" width="51.1912" height="39.358" filterUnits="userSpaceOnUse" color-interpolation-filters="sRGB">
<feFlood flood-opacity="0" result="BackgroundImageFix"/>
<feColorMatrix in="SourceAlpha" type="matrix" values="0 0 0 0 0 0 0 0 0 0 0 0 0 0 0 0 0 0 127 0" result="hardAlpha"/>
<feOffset dy="4"/>
<feGaussianBlur stdDeviation="2"/>
<feComposite in2="hardAlpha" operator="out"/>
<feColorMatrix type="matrix" values="0 0 0 0 0 0 0 0 0 0 0 0 0 0 0 0 0 0 0.57 0"/>
<feBlend mode="normal" in2="BackgroundImageFix" result="effect1_dropShadow_156_9"/>
<feBlend mode="normal" in="SourceGraphic" in2="effect1_dropShadow_156_9" result="shape"/>
<feColorMatrix in="SourceAlpha" type="matrix" values="0 0 0 0 0 0 0 0 0 0 0 0 0 0 0 0 0 0 127 0" result="hardAlpha"/>
<feOffset dy="1"/>
<feGaussianBlur stdDeviation="2.85"/>
<feComposite in2="hardAlpha" operator="arithmetic" k2="-1" k3="1"/>
<feColorMatrix type="matrix" values="0 0 0 0 0 0 0 0 0 0 0 0 0 0 0 0 0 0 0.82 0"/>
<feBlend mode="normal" in2="shape" result="effect2_innerShadow_156_9"/>
</filter>
<clipPath id="paint0_diamond_156_9_clip_path"><path d="M35.3218 0.430912C37.3217 1.93091 46.8218 15.4309 46.8218 15.4309C46.8218 15.4309 39.3212 29.4309 35.3218 30.9309C31.3224 32.4309 3.8218 18.4309 4.3218 15.4309C4.8218 12.4309 33.3219 -1.06909 35.3218 0.430912Z"/></clipPath><linearGradient id="paint0_diamond_156_9" x1="0" y1="0" x2="500" y2="500" gradientUnits="userSpaceOnUse">
<stop stop-color="#003D0B" stop-opacity="0.96"/>
<stop offset="0.519231" stop-color="#00540F"/>
<stop offset="1" stop-color="#008719"/>
</linearGradient>
<linearGradient id="paint1_linear_156_9" x1="44.3151" y1="16.315" x2="30.3151" y2="16.315" gradientUnits="userSpaceOnUse">
<stop stop-color="white" stop-opacity="0.72"/>
<stop offset="0.403846" stop-color="#80AA87" stop-opacity="0.92"/>
<stop offset="0.663462" stop-color="#00540F" stop-opacity="0.51"/>
</linearGradient>
<linearGradient id="paint2_linear_156_9" x1="13.8151" y1="16.2498" x2="2.1484" y2="16.2498" gradientUnits="userSpaceOnUse">
<stop stop-color="#00540F" stop-opacity="0.51"/>
<stop offset="0.290826" stop-color="#80AA87" stop-opacity="0.92"/>
<stop offset="1" stop-color="white" stop-opacity="0.72"/>
</linearGradient>
</defs>
</svg>
