<svg width="540" height="653" viewBox="0 0 540 653" fill="none" xmlns="http://www.w3.org/2000/svg">
<g filter="url(#filter0_di_122_24)">
<path d="M2.80005 390.286C2.80005 194.619 161.419 36 357.086 36V36C435.352 36 498.8 99.4476 498.8 177.714V219.692C498.8 447.956 313.756 633 85.4923 633H2.80005V390.286Z" fill="#DFD400" fill-opacity="0.87" shape-rendering="crispEdges"/>
<path d="M357.086 37.5C434.524 37.5002 497.3 100.276 497.3 177.714V219.692C497.3 447.127 312.927 631.5 85.4924 631.5H4.30005V390.286C4.30005 195.448 162.248 37.5 357.086 37.5Z" stroke="#837C00" stroke-opacity="0.8" stroke-width="3" shape-rendering="crispEdges"/>
</g>
<path d="M446.926 305.1C414.307 344.148 356.209 349.361 317.16 316.742L213.41 230.075C181.593 203.497 177.388 156.108 203.966 124.291C261.257 55.7067 363.39 46.4439 431.974 103.735C491.555 153.506 499.508 242.153 449.738 301.734L446.926 305.1Z" fill="url(#paint0_linear_122_24)" fill-opacity="0.44"/>
<path d="M39.3 595.5C25.5858 581.713 19.105 464.752 39.3 388C54.6165 485.725 138.3 513 138.3 513C138.3 513 234.618 542.093 320.3 526C251.101 582.485 72.8345 629.213 39.3 595.5Z" fill="url(#paint1_linear_122_24)" fill-opacity="0.44"/>
<defs>
<filter id="filter0_di_122_24" x="4.86374e-05" y="32.2" width="519.6" height="620.6" filterUnits="userSpaceOnUse" color-interpolation-filters="sRGB">
<feFlood flood-opacity="0" result="BackgroundImageFix"/>
<feColorMatrix in="SourceAlpha" type="matrix" values="0 0 0 0 0 0 0 0 0 0 0 0 0 0 0 0 0 0 127 0" result="hardAlpha"/>
<feMorphology radius="6" operator="dilate" in="SourceAlpha" result="effect1_dropShadow_122_24"/>
<feOffset dx="9" dy="8"/>
<feGaussianBlur stdDeviation="2.9"/>
<feComposite in2="hardAlpha" operator="out"/>
<feColorMatrix type="matrix" values="0 0 0 0 0 0 0 0 0 0 0 0 0 0 0 0 0 0 0.37 0"/>
<feBlend mode="normal" in2="BackgroundImageFix" result="effect1_dropShadow_122_24"/>
<feBlend mode="normal" in="SourceGraphic" in2="effect1_dropShadow_122_24" result="shape"/>
<feColorMatrix in="SourceAlpha" type="matrix" values="0 0 0 0 0 0 0 0 0 0 0 0 0 0 0 0 0 0 127 0" result="hardAlpha"/>
<feOffset dy="4"/>
<feGaussianBlur stdDeviation="25.65"/>
<feComposite in2="hardAlpha" operator="arithmetic" k2="-1" k3="1"/>
<feColorMatrix type="matrix" values="0 0 0 0 0 0 0 0 0 0 0 0 0 0 0 0 0 0 0.78 0"/>
<feBlend mode="normal" in2="shape" result="effect2_innerShadow_122_24"/>
</filter>
<linearGradient id="paint0_linear_122_24" x1="423.823" y1="96.9264" x2="271.832" y2="278.877" gradientUnits="userSpaceOnUse">
<stop stop-color="white"/>
<stop offset="0.697115" stop-color="#EFEA80"/>
<stop offset="0.9999" stop-color="#DFD400"/>
</linearGradient>
<linearGradient id="paint1_linear_122_24" x1="26.8" y1="628.5" x2="208.3" y2="447" gradientUnits="userSpaceOnUse">
<stop offset="0.187281" stop-color="white"/>
<stop offset="0.405896" stop-color="#EFEA80"/>
<stop offset="0.629842" stop-color="#DFD400"/>
</linearGradient>
</defs>
</svg>
