<svg width="116" height="145" viewBox="0 0 116 145" fill="none" xmlns="http://www.w3.org/2000/svg">
<g filter="url(#filter0_di_162_31)">
<path d="M2.79999 73.0773C2.79999 36.644 32.335 7.10901 68.7682 7.10901V7.10901C83.3415 7.10901 95.1555 18.923 95.1555 33.4963V43.3831C95.1555 88.4588 58.6144 125 13.5387 125H2.79999V73.0773Z" fill="#DFD400" fill-opacity="0.87" shape-rendering="crispEdges"/>
<path d="M68.7678 8.60901C82.5126 8.60901 93.6555 19.7518 93.6555 33.4967V43.3834C93.6553 87.6306 57.7855 123.5 13.5383 123.5H4.29999V73.0768C4.30024 37.4723 33.1633 8.60926 68.7678 8.60901Z" stroke="#837C00" stroke-opacity="0.8" stroke-width="3" shape-rendering="crispEdges"/>
</g>
<path d="M85.4965 60.2488C79.4228 67.9598 68.543 68.9342 61.1957 62.4252L42.1284 45.5332C36.1418 40.2296 35.3725 30.7455 40.3213 24.4626V24.4626C50.8781 11.0599 69.9421 9.17136 82.7125 20.4848V20.4848C93.8065 30.3131 95.3655 47.7193 86.1945 59.3626L85.4965 60.2488Z" fill="url(#paint0_linear_162_31)" fill-opacity="0.44"/>
<path d="M9.5963 117.595C7.0427 114.872 5.83597 91.7758 9.5963 76.6193C12.4482 95.9172 28.0302 101.303 28.0302 101.303C28.0302 101.303 45.9647 107.048 61.9187 103.87C49.0338 115.025 15.8404 124.252 9.5963 117.595Z" fill="url(#paint1_linear_162_31)" fill-opacity="0.44"/>
<path d="M29.8 76.52C29.704 76.488 29.632 76.472 29.584 76.472C29.552 76.456 29.512 76.448 29.464 76.448C29.432 76.448 29.4 76.44 29.368 76.424C29.016 76.36 28.752 76.272 28.576 76.16C28.416 76.048 28.28 75.896 28.168 75.704C28.072 75.528 27.936 75.304 27.76 75.032L27.736 74.912L27.76 74.888C27.696 74.776 27.648 74.672 27.616 74.576C27.6 74.48 27.584 74.384 27.568 74.288C27.456 74.096 27.416 73.888 27.448 73.664L27.4 73.568H27.424V73.256C27.36 73.128 27.336 73.008 27.352 72.896V72.56L27.328 72.584V72.368C27.328 72.32 27.344 72.312 27.376 72.344L27.448 72.296L27.304 72.2H27.256C27.32 72.136 27.352 71.984 27.352 71.744C27.368 71.488 27.376 71.304 27.376 71.192L27.496 71.024C27.48 70.992 27.472 70.936 27.472 70.856C27.472 70.76 27.48 70.704 27.496 70.688L27.544 70.664L27.52 70.616V70.592C27.52 70.512 27.536 70.384 27.568 70.208C27.616 70.016 27.664 69.824 27.712 69.632C27.76 69.44 27.792 69.312 27.808 69.248C27.936 69.104 28.024 69.024 28.072 69.008C28.12 68.992 28.152 68.968 28.168 68.936C28.2 68.904 28.24 68.8 28.288 68.624L28.168 68.6L28.144 68.552V68.48L28.408 68.336C28.424 68.304 28.432 68.248 28.432 68.168C28.416 68.136 28.432 68.104 28.48 68.072L28.504 68.096C28.488 68.128 28.472 68.152 28.456 68.168C28.456 68.184 28.456 68.192 28.456 68.192C28.456 68.192 28.456 68.2 28.456 68.216C28.456 68.216 28.448 68.224 28.432 68.24L28.456 68.264L28.48 68.24V68.192L28.504 68.168H28.528C28.544 68.184 28.552 68.184 28.552 68.168C28.568 68.152 28.568 68.136 28.552 68.12C28.568 68.104 28.576 68.088 28.576 68.072V68C28.56 67.984 28.552 67.968 28.552 67.952L28.576 67.928C28.576 67.88 28.624 67.84 28.72 67.808C28.816 67.776 28.88 67.76 28.912 67.76L28.888 67.736L28.768 67.76C28.768 67.728 28.8 67.704 28.864 67.688C28.928 67.672 28.976 67.664 29.008 67.664V67.544C29.088 67.496 29.16 67.472 29.224 67.472C29.336 67.472 29.432 67.512 29.512 67.592C29.592 67.656 29.664 67.728 29.728 67.808L29.68 67.832C29.664 67.736 29.6 67.688 29.488 67.688C29.344 67.688 29.2 67.776 29.056 67.952C28.912 68.128 28.848 68.288 28.864 68.432C28.816 68.432 28.776 68.392 28.744 68.312L28.672 68.576L28.696 68.384C28.632 68.608 28.6 68.776 28.6 68.888C28.616 68.984 28.544 69.072 28.384 69.152C28.416 69.232 28.408 69.312 28.36 69.392C28.312 69.504 28.288 69.592 28.288 69.656C28.288 69.72 28.304 69.752 28.336 69.752C28.368 69.784 28.384 69.824 28.384 69.872L28.216 70.064C28.2 70.272 28.184 70.472 28.168 70.664C28.152 70.856 28.128 71.04 28.096 71.216C28.048 71.568 28.024 71.96 28.024 72.392C28.024 72.776 28.056 73.176 28.12 73.592C28.2 73.992 28.344 74.336 28.552 74.624C28.76 74.912 29.072 75.056 29.488 75.056C29.824 75.056 30.096 74.984 30.304 74.84C30.512 74.712 30.696 74.544 30.856 74.336C31.016 74.128 31.192 73.912 31.384 73.688C31.576 73.464 31.824 73.272 32.128 73.112C32.128 73.096 32.152 73.064 32.2 73.016C32.248 72.968 32.272 72.936 32.272 72.92C32.272 72.824 32.344 72.672 32.488 72.464C32.648 72.24 32.728 72.08 32.728 71.984L32.776 71.96V71.912H32.8C32.816 71.912 32.824 71.904 32.824 71.888H32.848C32.88 71.888 32.912 71.896 32.944 71.912C32.992 71.912 33.04 71.92 33.088 71.936L33.304 71.408L33.496 71.288C33.512 71.272 33.52 71.24 33.52 71.192C33.52 71.176 33.528 71.16 33.544 71.144C33.576 71.048 33.624 70.968 33.688 70.904C33.72 70.872 33.752 70.832 33.784 70.784C33.816 70.736 33.84 70.696 33.856 70.664L34.216 70.088C34.28 69.992 34.336 69.896 34.384 69.8C34.432 69.704 34.488 69.6 34.552 69.488C34.984 68.736 35.432 67.944 35.896 67.112C36.376 66.264 36.776 65.44 37.096 64.64L36.88 64.256C36.864 64.288 36.856 64.344 36.856 64.424C36.824 64.52 36.784 64.576 36.736 64.592C36.656 64.592 36.616 64.552 36.616 64.472C36.616 64.44 36.64 64.376 36.688 64.28C36.72 64.232 36.736 64.192 36.736 64.16C36.752 64.128 36.768 64.104 36.784 64.088C36.784 64.072 36.792 64.064 36.808 64.064C36.808 64.032 36.752 63.968 36.64 63.872C36.528 63.776 36.472 63.688 36.472 63.608V63.56C36.52 63.512 36.56 63.48 36.592 63.464C36.64 63.432 36.664 63.4 36.664 63.368V63.272C36.584 63.128 36.528 63.024 36.496 62.96C36.48 62.88 36.472 62.76 36.472 62.6C36.52 62.6 36.544 62.568 36.544 62.504V62.456C36.528 62.456 36.52 62.448 36.52 62.432L36.328 62.384L36.256 62.264C36.304 62.216 36.328 62.16 36.328 62.096C36.328 62.064 36.32 62.032 36.304 62C36.304 61.952 36.296 61.904 36.28 61.856L36.184 61.832L36.16 61.76C36.208 61.712 36.232 61.656 36.232 61.592C36.232 61.496 36.208 61.392 36.16 61.28C36.112 61.152 36.072 61.048 36.04 60.968L36.088 60.92H36.016L35.968 60.848C36 60.816 36.016 60.776 36.016 60.728C36.016 60.68 36 60.608 35.968 60.512C35.952 60.4 35.928 60.32 35.896 60.272C35.88 60.224 35.864 60.176 35.848 60.128C35.832 60.08 35.808 60.032 35.776 59.984C35.712 59.888 35.664 59.792 35.632 59.696C35.472 59.28 35.344 58.832 35.248 58.352C35.152 57.856 35.096 57.392 35.08 56.96C35.256 56.864 35.432 56.816 35.608 56.816C35.784 56.816 35.992 56.872 36.232 56.984C36.488 57.08 36.648 57.224 36.712 57.416C36.744 57.512 36.776 57.68 36.808 57.92L36.88 58.496C36.944 58.992 37.072 59.496 37.264 60.008C37.456 60.52 37.816 60.856 38.344 61.016C38.488 61 38.6 60.976 38.68 60.944C38.808 60.912 38.928 60.872 39.04 60.824C39.168 60.76 39.28 60.688 39.376 60.608C39.44 60.496 39.496 60.392 39.544 60.296C39.608 60.184 39.664 60.072 39.712 59.96C39.76 59.928 39.8 59.856 39.832 59.744L39.904 59.528L40.144 59.384V59.336C40.144 59.256 40.2 59.056 40.312 58.736C40.424 58.4 40.56 58.016 40.72 57.584C40.88 57.136 41.04 56.696 41.2 56.264C41.36 55.832 41.496 55.464 41.608 55.16C41.736 54.856 41.808 54.688 41.824 54.656L41.848 54.68L41.944 54.584L41.92 54.536H41.896C41.848 54.536 41.816 54.456 41.8 54.296C41.784 54.12 41.776 54.016 41.776 53.984C41.856 53.92 41.936 53.864 42.016 53.816C42.112 53.768 42.208 53.744 42.304 53.744C42.464 53.744 42.56 53.816 42.592 53.96C42.64 54.104 42.664 54.232 42.664 54.344C42.664 54.664 42.648 55 42.616 55.352C42.584 55.704 42.52 56.032 42.424 56.336C42.408 56.352 42.392 56.384 42.376 56.432C42.36 56.464 42.336 56.512 42.304 56.576C42.224 56.72 42.192 56.8 42.208 56.816L42.232 56.84C42.232 56.856 42.216 56.896 42.184 56.96C42.168 56.976 42.152 57 42.136 57.032C42.12 57.048 42.104 57.064 42.088 57.08C42.04 57.144 42 57.248 41.968 57.392C41.952 57.456 41.936 57.52 41.92 57.584C41.904 57.632 41.888 57.688 41.872 57.752C41.824 57.896 41.72 58.12 41.56 58.424C41.4 58.728 41.216 59.056 41.008 59.408C40.816 59.744 40.624 60.064 40.432 60.368C40.24 60.656 40.088 60.856 39.976 60.968C39.976 61.016 39.96 61.112 39.928 61.256C39.896 61.384 39.84 61.456 39.76 61.472L39.712 61.448C39.584 61.576 39.496 61.736 39.448 61.928C39.416 62.104 39.4 62.28 39.4 62.456C39.4 62.568 39.352 62.672 39.256 62.768C39.272 62.816 39.28 62.872 39.28 62.936C39.28 63.016 39.288 63.08 39.304 63.128L39.112 63.248C39.064 63.36 39.016 63.472 38.968 63.584C38.92 63.696 38.872 63.816 38.824 63.944C38.808 63.976 38.8 64.008 38.8 64.04C38.8 64.056 38.792 64.08 38.776 64.112L38.704 64.304C38.704 64.32 38.712 64.328 38.728 64.328L38.704 64.352C38.8 64.784 38.952 65.352 39.16 66.056C39.368 66.744 39.6 67.472 39.856 68.24C40.112 69.008 40.376 69.72 40.648 70.376C40.92 71.016 41.168 71.496 41.392 71.816C41.424 71.88 41.456 71.944 41.488 72.008C41.536 72.056 41.576 72.12 41.608 72.2C41.688 72.376 41.776 72.488 41.872 72.536C42.064 72.648 42.272 72.824 42.496 73.064C42.72 73.288 42.928 73.4 43.12 73.4C43.296 73.4 43.488 73.272 43.696 73.016C43.904 72.76 44.096 72.584 44.272 72.488C44.368 72.456 44.424 72.44 44.44 72.44C44.456 72.456 44.504 72.464 44.584 72.464C44.6 72.464 44.616 72.456 44.632 72.44C44.68 72.36 44.72 72.256 44.752 72.128C44.768 72.064 44.784 72.008 44.8 71.96C44.816 71.912 44.832 71.864 44.848 71.816C44.848 71.784 44.888 71.648 44.968 71.408C45.064 71.168 45.168 70.896 45.28 70.592C45.392 70.272 45.496 69.992 45.592 69.752C45.704 69.496 45.784 69.344 45.832 69.296C46.008 69.152 46.128 69.024 46.192 68.912C46.256 68.8 46.32 68.648 46.384 68.456C46.448 68.312 46.48 68.144 46.48 67.952C46.464 67.792 46.496 67.64 46.576 67.496C46.96 66.856 47.304 66.112 47.608 65.264C47.912 64.416 48.184 63.528 48.424 62.6C48.664 61.656 48.872 60.736 49.048 59.84C49.24 58.928 49.408 58.104 49.552 57.368L49.456 57.008C49.312 57.072 49.152 57.128 48.976 57.176C48.784 57.256 48.64 57.368 48.544 57.512L48.376 57.584L48.16 57.56L47.056 58.352C46.864 58.48 46.672 58.616 46.48 58.76C46.288 58.904 46.104 59.056 45.928 59.216L45.808 59.168C45.984 58.944 46.168 58.744 46.36 58.568C46.552 58.376 46.744 58.192 46.936 58.016L48.304 56.768C48.768 56.352 49.2 55.92 49.6 55.472C49.696 55.44 49.864 55.4 50.104 55.352C50.36 55.304 50.544 55.28 50.656 55.28C50.928 55.28 51.136 55.368 51.28 55.544C51.44 55.704 51.52 55.92 51.52 56.192C51.52 56.448 51.448 56.752 51.304 57.104C51.176 57.44 51.04 57.784 50.896 58.136C50.768 58.472 50.696 58.792 50.68 59.096L50.536 59.264H50.416L50.464 59.048L50.416 58.952C50.304 59.24 50.136 59.536 49.912 59.84C49.688 60.128 49.592 60.392 49.624 60.632L49.384 60.92C49.368 60.984 49.352 61.048 49.336 61.112C49.336 61.16 49.336 61.208 49.336 61.256L49.36 61.16V61.184C49.36 61.76 49.264 62.392 49.072 63.08C48.88 63.752 48.648 64.448 48.376 65.168C48.104 65.872 47.84 66.56 47.584 67.232C47.328 67.904 47.136 68.528 47.008 69.104C46.976 69.216 46.936 69.336 46.888 69.464C46.84 69.576 46.792 69.688 46.744 69.8C46.648 70.008 46.528 70.288 46.384 70.64C46.24 70.976 46.104 71.304 45.976 71.624C45.864 71.928 45.792 72.144 45.76 72.272C45.712 72.56 45.552 72.912 45.28 73.328C45.008 73.728 44.704 74.096 44.368 74.432C44.032 74.784 43.72 75.04 43.432 75.2C43.4 75.2 43.36 75.2 43.312 75.2C43.264 75.2 43.224 75.208 43.192 75.224H42.928C42.752 75.224 42.536 75.16 42.28 75.032C42.04 74.904 41.856 74.776 41.728 74.648L41.752 74.408C41.736 74.424 41.712 74.44 41.68 74.456C41.664 74.472 41.64 74.496 41.608 74.528C41.544 74.592 41.488 74.624 41.44 74.624C41.296 74.624 41.096 74.472 40.84 74.168C40.6 73.864 40.352 73.512 40.096 73.112C39.856 72.712 39.64 72.352 39.448 72.032C39.272 71.696 39.168 71.496 39.136 71.432C39.056 71.256 38.968 71.056 38.872 70.832C38.792 70.608 38.752 70.4 38.752 70.208C38.752 70.144 38.768 70.064 38.8 69.968L38.896 69.728L38.824 69.608L38.752 69.632L38.608 69.152L38.752 68.816L38.512 68.48H38.464C38.368 68.48 38.28 68.416 38.2 68.288C38.12 68.144 38.08 68.032 38.08 67.952C38.08 67.808 38.08 67.664 38.08 67.52C38.096 67.36 38.112 67.216 38.128 67.088L37.96 66.8C37.896 66.688 37.872 66.584 37.888 66.488C37.856 66.424 37.856 66.36 37.888 66.296C37.92 66.216 37.952 66.16 37.984 66.128H37.864C37.848 66.16 37.768 66.32 37.624 66.608C37.496 66.896 37.328 67.24 37.12 67.64C36.928 68.04 36.72 68.432 36.496 68.816C36.288 69.2 36.08 69.528 35.872 69.8C35.68 70.056 35.52 70.184 35.392 70.184C35.36 70.184 35.328 70.168 35.296 70.136C35.312 70.264 35.32 70.368 35.32 70.448C35.32 70.528 35.32 70.584 35.32 70.616C35.32 70.664 35.192 70.68 34.936 70.664L34.984 70.736C34.92 70.752 34.872 70.832 34.84 70.976C34.808 71.12 34.76 71.224 34.696 71.288L34.936 71.384L34.432 72.152C34.448 72.216 34.44 72.296 34.408 72.392C34.36 72.456 34.336 72.56 34.336 72.704H34.264C34.184 72.704 34.104 72.656 34.024 72.56L33.952 72.608C33.984 72.704 34 72.76 34 72.776C34 72.984 33.928 73.168 33.784 73.328C33.64 73.488 33.48 73.648 33.304 73.808C33.144 73.952 33.04 74.12 32.992 74.312L32.488 74.792C32.344 74.904 32.224 75.072 32.128 75.296C32.064 75.392 32 75.48 31.936 75.56C31.872 75.64 31.8 75.712 31.72 75.776C31.624 75.84 31.44 75.928 31.168 76.04C30.912 76.168 30.648 76.28 30.376 76.376C30.12 76.472 29.928 76.52 29.8 76.52ZM40.216 60.296C40.264 60.216 40.312 60.128 40.36 60.032C40.408 59.936 40.456 59.84 40.504 59.744C40.584 59.568 40.672 59.392 40.768 59.216C40.8 59.136 40.84 59.064 40.888 59C40.936 58.92 40.984 58.848 41.032 58.784C41.08 58.72 41.12 58.656 41.152 58.592C41.2 58.512 41.24 58.44 41.272 58.376C41.288 58.312 41.352 58.16 41.464 57.92C41.592 57.68 41.72 57.448 41.848 57.224C41.976 56.984 42.056 56.856 42.088 56.84C42.088 56.712 42.136 56.568 42.232 56.408C42.328 56.264 42.376 56.072 42.376 55.832C42.376 55.752 42.376 55.672 42.376 55.592C42.376 55.512 42.368 55.432 42.352 55.352C42.336 55.272 42.328 55.2 42.328 55.136C42.328 55.056 42.32 54.976 42.304 54.896C42.144 55.248 41.976 55.704 41.8 56.264C41.64 56.808 41.504 57.248 41.392 57.584C41.232 58.032 41.056 58.48 40.864 58.928C40.688 59.36 40.464 59.792 40.192 60.224L40.216 60.296ZM37.888 62.96C37.984 62.896 38.112 62.728 38.272 62.456C38.448 62.184 38.624 61.904 38.8 61.616C38.976 61.312 39.104 61.096 39.184 60.968C39.12 61.032 39.024 61.08 38.896 61.112C38.768 61.16 38.688 61.2 38.656 61.232C38.672 61.232 38.68 61.248 38.68 61.28C38.68 61.296 38.648 61.304 38.584 61.304H38.44C38.28 61.304 38.112 61.256 37.936 61.16C37.856 61.112 37.776 61.064 37.696 61.016C37.632 60.968 37.56 60.928 37.48 60.896L37.432 60.92L37.384 60.872L37.336 60.92L37.624 61.928C37.672 62.088 37.712 62.256 37.744 62.432C37.792 62.608 37.84 62.784 37.888 62.96ZM38.824 63.584C38.84 63.584 38.856 63.568 38.872 63.536C38.888 63.488 38.896 63.456 38.896 63.44C38.896 63.408 38.88 63.392 38.848 63.392C38.816 63.392 38.768 63.44 38.704 63.536H38.728C38.76 63.536 38.784 63.544 38.8 63.56C38.8 63.576 38.808 63.584 38.824 63.584ZM28.912 67.856H29.056C29.056 67.824 29.04 67.808 29.008 67.808C28.976 67.808 28.944 67.824 28.912 67.856ZM28.432 68.648L28.48 68.6L28.456 68.528L28.48 68.504L28.456 68.432C28.44 68.448 28.432 68.496 28.432 68.576L28.408 68.6L28.432 68.648ZM34.456 71.6C34.488 71.488 34.512 71.424 34.528 71.408C34.512 71.424 34.496 71.44 34.48 71.456C34.464 71.472 34.448 71.496 34.432 71.528L34.456 71.6ZM33.424 73.592C33.44 73.448 33.504 73.296 33.616 73.136C33.648 73.056 33.68 72.984 33.712 72.92C33.76 72.84 33.784 72.768 33.784 72.704V72.68C33.784 72.648 33.776 72.624 33.76 72.608C33.744 72.592 33.744 72.576 33.76 72.56V72.536C33.744 72.536 33.712 72.6 33.664 72.728C33.616 72.84 33.568 72.96 33.52 73.088C33.472 73.2 33.44 73.264 33.424 73.28C33.392 73.28 33.376 73.296 33.376 73.328L33.424 73.448L33.352 73.472L33.424 73.592ZM40.36 72.992L40.432 72.896L40.384 72.776L40.288 72.968L40.36 72.992ZM32.944 74.192L33.064 74.12L32.968 73.952C32.952 73.952 32.944 73.984 32.944 74.048L32.872 74.096L32.944 74.192ZM30.232 76.256C30.328 76.224 30.376 76.176 30.376 76.112C30.344 76.08 30.296 76.056 30.232 76.04C30.168 76.04 30.12 76.04 30.088 76.04C30.056 76.04 30.04 76.048 30.04 76.064C30.04 76.112 30.064 76.152 30.112 76.184C30.176 76.216 30.216 76.24 30.232 76.256ZM50.2311 73.784C50.0551 73.784 49.8791 73.76 49.7031 73.712C49.4471 73.616 49.1911 73.352 48.9351 72.92L49.1271 72.872L48.9591 72.752L48.7671 72.152H48.7431C48.7271 72.104 48.7191 72.032 48.7191 71.936V71.768C48.7191 71.704 48.7591 71.592 48.8391 71.432C48.9191 71.272 48.9911 71.12 49.0551 70.976L48.8151 71.024V70.904C48.8311 70.888 48.8551 70.848 48.8871 70.784C48.9031 70.736 48.9431 70.704 49.0071 70.688C49.0231 70.704 49.0311 70.728 49.0311 70.76L49.0791 70.712V70.592C49.0791 70.528 49.0791 70.464 49.0791 70.4C49.0951 70.32 49.1271 70.256 49.1751 70.208C49.1751 70.112 49.1831 70.056 49.1991 70.04L49.2231 69.944H49.2711V69.848L49.4151 69.656C49.4951 69.576 49.5431 69.536 49.5591 69.536V69.512C49.5431 69.528 49.5191 69.536 49.4871 69.536C49.4231 69.536 49.3911 69.504 49.3911 69.44C49.3911 69.424 49.3991 69.408 49.4151 69.392V69.272C49.4311 69.256 49.4391 69.216 49.4391 69.152C49.4391 69.088 49.4231 69.04 49.3911 69.008L49.5591 68.816L49.6551 68.84L49.6311 68.816H49.6791L49.7031 68.792L49.7751 68.528L49.8951 68.72L49.9671 68.312C49.9831 68.232 49.9991 68.152 50.0151 68.072C50.0311 67.992 50.0471 67.912 50.0631 67.832L50.3271 67.808V67.616H50.2551V67.496L50.3751 67.376V67.4L50.3991 67.376V67.256L50.6151 67.112V67.016C50.7271 66.952 50.8231 66.84 50.9031 66.68C50.9511 66.568 51.0631 66.496 51.2391 66.464H51.0951L51.1191 66.44L51.0231 66.512V66.32H51.0711L51.0951 66.272H51.1191L51.1671 66.176V66.056C51.2631 65.992 51.3591 65.912 51.4551 65.816C51.5671 65.72 51.6231 65.616 51.6231 65.504L51.7191 65.432V65.336L51.8151 65.384L52.1271 65.096V65L52.3191 64.88L52.4151 64.736C52.4151 64.688 52.4391 64.664 52.4871 64.664C52.5031 64.664 52.5351 64.68 52.5831 64.712C52.6471 64.728 52.6951 64.744 52.7271 64.76H52.8711C53.1271 64.76 53.3831 64.856 53.6391 65.048C53.8951 65.224 54.1111 65.44 54.2871 65.696C54.4631 65.952 54.5511 66.208 54.5511 66.464C54.5511 66.544 54.5751 66.624 54.6231 66.704C54.6391 66.752 54.6471 66.8 54.6471 66.848C54.6631 66.896 54.6711 66.952 54.6711 67.016V67.112C54.6711 67.176 54.6631 67.216 54.6471 67.232C54.3751 67.872 53.9511 68.488 53.3751 69.08C52.8151 69.672 52.2311 70.136 51.6231 70.472C51.4951 70.536 51.3511 70.6 51.1911 70.664C51.0311 70.728 50.8711 70.76 50.7111 70.76C50.6631 70.76 50.6311 70.752 50.6151 70.736L50.4471 70.688C50.4951 70.672 50.5671 70.632 50.6631 70.568C50.6951 70.552 50.7271 70.536 50.7591 70.52C50.7911 70.504 50.8231 70.488 50.8551 70.472L50.9991 70.4C51.0311 70.4 51.0551 70.392 51.0711 70.376L51.0471 70.352C51.0471 70.288 51.0871 70.256 51.1671 70.256C51.2631 70.192 51.3431 70.152 51.4071 70.136L51.6471 70.064C51.7431 70.032 51.8231 70.008 51.8871 69.992C51.9671 69.96 52.0071 69.912 52.0071 69.848C52.0711 69.8 52.1511 69.696 52.2471 69.536C52.3591 69.344 52.4391 69.224 52.4871 69.176L52.7031 69.128L52.9431 68.768L52.8951 68.672L53.0871 68.576V68.48H53.1351C53.3111 68.288 53.4471 68.12 53.5431 67.976C53.6551 67.816 53.7511 67.608 53.8311 67.352C53.8311 67.32 53.8551 67.304 53.9031 67.304V67.28C53.9991 67.088 54.0471 66.904 54.0471 66.728C54.0471 66.344 53.8631 66.152 53.4951 66.152C53.4631 66.152 53.4231 66.144 53.3751 66.128C53.3111 66.128 53.2791 66.144 53.2791 66.176H53.3991L53.2791 66.272C53.1991 66.304 53.1191 66.352 53.0391 66.416C52.9751 66.48 52.9431 66.568 52.9431 66.68H52.8471C52.8791 66.68 52.9031 66.712 52.9191 66.776C52.8071 66.776 52.7271 66.808 52.6791 66.872L52.7991 66.944C52.7671 66.976 52.7271 67.008 52.6791 67.04C52.6311 67.056 52.5831 67.08 52.5351 67.112C52.4871 67.128 52.4391 67.152 52.3911 67.184C52.3431 67.2 52.3031 67.224 52.2711 67.256C52.0951 67.384 52.0071 67.504 52.0071 67.616C52.0071 67.632 52.0151 67.648 52.0311 67.664C52.0471 67.68 52.0631 67.696 52.0791 67.712C52.1111 67.728 52.1431 67.752 52.1751 67.784L51.9831 67.76C51.9831 67.76 51.9911 67.76 52.0071 67.76C52.0231 67.744 52.0391 67.736 52.0551 67.736C51.9911 67.736 51.9431 67.744 51.9111 67.76C51.8791 67.76 51.8791 67.776 51.9111 67.808L51.9351 67.832C51.9351 67.832 51.9271 67.832 51.9111 67.832C51.9111 67.832 51.9111 67.84 51.9111 67.856C51.8951 67.872 51.8871 67.888 51.8871 67.904H51.8391C51.7751 67.984 51.7111 68.064 51.6471 68.144C51.5991 68.224 51.5591 68.304 51.5271 68.384C51.4631 68.528 51.3751 68.672 51.2631 68.816L51.4311 68.936H51.2631L51.1671 69.032V69.152L51.0231 69.272L51.0711 69.296L50.8311 69.704L50.7591 69.728V69.92L50.4951 70.208L50.5191 70.304H50.4711V70.472C50.3591 70.584 50.2871 70.728 50.2551 70.904C50.2391 71.064 50.1751 71.224 50.0631 71.384H50.2071L50.0151 71.504V71.576C49.9991 71.592 49.9911 71.616 49.9911 71.648C49.9911 71.712 49.9911 71.768 49.9911 71.816C50.0071 71.864 50.0231 71.912 50.0391 71.96C50.0551 72.008 50.0631 72.056 50.0631 72.104C50.0791 72.152 50.0871 72.208 50.0871 72.272C50.0871 72.4 50.1351 72.568 50.2311 72.776C50.3431 72.968 50.4551 73.064 50.5671 73.064C50.8711 73.064 51.1751 72.984 51.4791 72.824C51.7671 72.648 52.0631 72.552 52.3671 72.536L52.8711 72.128C53.1271 71.92 53.3511 71.672 53.5431 71.384C53.7511 71.096 53.9831 70.848 54.2391 70.64H54.2631L54.2151 70.592C54.2631 70.528 54.3351 70.432 54.4311 70.304C54.5271 70.176 54.5831 70.072 54.5991 69.992C54.6151 69.976 54.6231 69.944 54.6231 69.896C54.6231 69.864 54.6311 69.84 54.6471 69.824C54.6791 69.744 54.7271 69.704 54.7911 69.704C54.8551 69.704 54.8871 69.744 54.8871 69.824C54.8871 69.872 54.8791 69.904 54.8631 69.92C54.8631 70.08 54.7911 70.312 54.6471 70.616C54.5191 70.904 54.3671 71.08 54.1911 71.144V71.216C54.1111 71.296 54.0311 71.408 53.9511 71.552C53.8391 71.696 53.6791 71.896 53.4711 72.152C53.2791 72.408 53.1191 72.536 52.9911 72.536L52.6551 72.752V72.848C52.6551 72.928 52.6071 72.984 52.5111 73.016C52.4471 73.096 52.3671 73.128 52.2711 73.112C52.2231 73.208 52.1431 73.272 52.0311 73.304C51.9831 73.32 51.9111 73.36 51.8151 73.424C51.7831 73.472 51.7031 73.52 51.5751 73.568C51.4631 73.616 51.3831 73.648 51.3351 73.664C51.2551 73.728 51.1591 73.768 51.0471 73.784C50.9351 73.784 50.8391 73.784 50.7591 73.784H50.2311ZM54.9865 75.032C54.6665 75.032 54.4345 74.88 54.2905 74.576C54.1305 74.272 54.0505 73.984 54.0505 73.712C54.0505 73.264 54.1465 72.736 54.3385 72.128C54.5305 71.52 54.7625 70.896 55.0345 70.256C55.3225 69.6 55.6185 68.984 55.9225 68.408C56.2265 67.816 56.4825 67.32 56.6905 66.92C56.8185 66.696 56.9865 66.408 57.1945 66.056C57.4185 65.688 57.5385 65.416 57.5545 65.24L57.2185 65.312C57.1545 65.328 57.0905 65.344 57.0265 65.36C56.9785 65.36 56.9225 65.36 56.8585 65.36C56.8585 65.36 56.8505 65.36 56.8345 65.36C56.8345 65.36 56.8265 65.352 56.8105 65.336H56.6905V65.264C56.6905 65.216 56.7065 65.192 56.7385 65.192C56.8345 65.016 57.0105 64.888 57.2665 64.808C57.5225 64.728 57.7385 64.688 57.9145 64.688C58.3785 64.688 58.7545 64.864 59.0425 65.216C59.3305 65.552 59.4745 65.944 59.4745 66.392V66.632C59.4745 66.696 59.4585 66.776 59.4265 66.872C59.3625 67.08 59.1785 67.36 58.8745 67.712C58.5865 68.064 58.3385 68.36 58.1305 68.6C57.8585 68.936 57.6025 69.288 57.3625 69.656C57.1385 70.024 56.9145 70.392 56.6905 70.76C56.6745 70.792 56.6585 70.832 56.6425 70.88C56.6265 70.912 56.6025 70.952 56.5705 71C56.5385 71.048 56.5065 71.096 56.4745 71.144C56.4585 71.192 56.4345 71.24 56.4025 71.288C56.3705 71.32 56.3385 71.36 56.3065 71.408C56.2905 71.456 56.2665 71.496 56.2345 71.528C56.2185 71.576 56.1945 71.624 56.1625 71.672C56.1465 71.704 56.1225 71.736 56.0905 71.768C55.9465 71.88 55.8185 72.008 55.7065 72.152C55.6105 72.248 55.5065 72.424 55.3945 72.68C55.2985 72.92 55.2105 73.176 55.1305 73.448C55.0665 73.72 55.0185 73.944 54.9865 74.12C55.1785 74.008 55.3225 73.904 55.4185 73.808C55.4825 73.744 55.5465 73.688 55.6105 73.64C55.6905 73.576 55.7625 73.512 55.8265 73.448C56.4505 72.952 56.9865 72.408 57.4345 71.816L58.8265 70.016L59.3305 69.44C59.4105 69.36 59.4825 69.272 59.5465 69.176C59.6105 69.064 59.6745 68.952 59.7385 68.84C59.8345 68.664 59.9145 68.48 59.9785 68.288C60.0425 68.08 60.0745 67.864 60.0745 67.64C60.2505 67.512 60.4265 67.448 60.6025 67.448C60.6985 67.448 60.8105 67.464 60.9385 67.496C60.9865 67.512 61.0345 67.528 61.0825 67.544C61.1305 67.56 61.1865 67.576 61.2505 67.592C61.3625 67.608 61.4665 67.632 61.5625 67.664C61.6585 67.68 61.7545 67.696 61.8505 67.712C62.0425 67.76 62.1385 67.928 62.1385 68.216C62.1385 68.328 62.1305 68.4 62.1145 68.432C61.9385 68.832 61.7225 69.208 61.4665 69.56C61.1945 69.96 61.0105 70.36 60.9145 70.76V70.832C60.9145 70.864 60.8985 70.896 60.8665 70.928C60.6105 71.504 60.4825 72.072 60.4825 72.632C60.4825 72.664 60.4905 72.688 60.5065 72.704V72.8L60.5305 72.896C60.9145 72.816 61.2905 72.624 61.6585 72.32C62.0425 72.016 62.4025 71.656 62.7385 71.24C63.0905 70.808 63.3865 70.376 63.6265 69.944C63.8825 69.512 64.1145 69.04 64.3225 68.528C64.5465 68.016 64.7305 67.52 64.8745 67.04C65.0185 66.544 65.0905 66.12 65.0905 65.768C65.0905 65.688 65.0825 65.608 65.0665 65.528C65.0665 65.432 65.0585 65.344 65.0425 65.264C64.9945 65.088 64.9065 64.976 64.7785 64.928C64.6505 64.864 64.4985 64.832 64.3225 64.832H64.1065C64.0105 64.832 63.9385 64.824 63.8905 64.808C63.8265 64.792 63.7705 64.768 63.7225 64.736C63.6905 64.704 63.6745 64.632 63.6745 64.52C63.8505 64.552 64.0025 64.528 64.1305 64.448C64.2425 64.384 64.3705 64.352 64.5145 64.352C65.0105 64.352 65.4025 64.48 65.6905 64.736C65.9785 64.992 66.1225 65.376 66.1225 65.888C66.1225 66.304 66.0345 66.744 65.8585 67.208C65.6825 67.656 65.5065 68.064 65.3305 68.432C65.2345 68.624 65.0585 68.912 64.8025 69.296C64.5465 69.664 64.2585 70.056 63.9385 70.472C63.6185 70.888 63.3225 71.256 63.0505 71.576C62.7785 71.896 62.4665 72.24 62.1145 72.608C61.7625 72.96 61.4185 73.256 61.0825 73.496C60.7625 73.736 60.4905 73.856 60.2665 73.856C60.1385 73.856 60.0265 73.824 59.9305 73.76C59.8505 73.68 59.7705 73.592 59.6905 73.496C59.4825 73.272 59.3385 73.024 59.2585 72.752C59.1785 72.48 59.1385 72.184 59.1385 71.864C59.1385 71.288 59.2265 70.712 59.4025 70.136C59.2745 70.312 59.1465 70.496 59.0185 70.688C58.8905 70.88 58.7705 71.064 58.6585 71.24C58.5465 71.432 58.4265 71.624 58.2985 71.816C58.1705 72.008 58.0425 72.192 57.9145 72.368C57.6265 72.752 57.3385 73.08 57.0505 73.352L56.0905 74.288C55.9625 74.416 55.7945 74.568 55.5865 74.744C55.3785 74.936 55.1785 75.032 54.9865 75.032Z" fill="#1F1F1F" fill-opacity="0.71"/>
<defs>
<filter id="filter0_di_162_31" x="-1.23978e-05" y="3.30901" width="115.956" height="141.491" filterUnits="userSpaceOnUse" color-interpolation-filters="sRGB">
<feFlood flood-opacity="0" result="BackgroundImageFix"/>
<feColorMatrix in="SourceAlpha" type="matrix" values="0 0 0 0 0 0 0 0 0 0 0 0 0 0 0 0 0 0 127 0" result="hardAlpha"/>
<feMorphology radius="6" operator="dilate" in="SourceAlpha" result="effect1_dropShadow_162_31"/>
<feOffset dx="9" dy="8"/>
<feGaussianBlur stdDeviation="2.9"/>
<feComposite in2="hardAlpha" operator="out"/>
<feColorMatrix type="matrix" values="0 0 0 0 0 0 0 0 0 0 0 0 0 0 0 0 0 0 0.37 0"/>
<feBlend mode="normal" in2="BackgroundImageFix" result="effect1_dropShadow_162_31"/>
<feBlend mode="normal" in="SourceGraphic" in2="effect1_dropShadow_162_31" result="shape"/>
<feColorMatrix in="SourceAlpha" type="matrix" values="0 0 0 0 0 0 0 0 0 0 0 0 0 0 0 0 0 0 127 0" result="hardAlpha"/>
<feOffset dy="4"/>
<feGaussianBlur stdDeviation="25.65"/>
<feComposite in2="hardAlpha" operator="arithmetic" k2="-1" k3="1"/>
<feColorMatrix type="matrix" values="0 0 0 0 0 0 0 0 0 0 0 0 0 0 0 0 0 0 0.78 0"/>
<feBlend mode="normal" in2="shape" result="effect2_innerShadow_162_31"/>
</filter>
<linearGradient id="paint0_linear_162_31" x1="81.1948" y1="19.1403" x2="50.9161" y2="53.3183" gradientUnits="userSpaceOnUse">
<stop stop-color="white"/>
<stop offset="0.697115" stop-color="#EFEA80"/>
<stop offset="0.9999" stop-color="#DFD400"/>
</linearGradient>
<linearGradient id="paint1_linear_162_31" x1="7.26879" y1="124.111" x2="43.0482" y2="90.3742" gradientUnits="userSpaceOnUse">
<stop offset="0.187281" stop-color="white"/>
<stop offset="0.405896" stop-color="#EFEA80"/>
<stop offset="0.629842" stop-color="#DFD400"/>
</linearGradient>
</defs>
</svg>
