<svg width="118" height="118" viewBox="0 0 118 118" fill="none" xmlns="http://www.w3.org/2000/svg">
<g filter="url(#filter0_d_174_5)">
<g clip-path="url(#paint0_diamond_174_5_clip_path)" data-figma-skip-parse="true"><g transform="matrix(0 0.059 -0.056 0 59 59)"><rect x="0" y="0" width="1016.95" height="1017.86" fill="url(#paint0_diamond_174_5)" opacity="0.8" shape-rendering="crispEdges"/><rect x="0" y="0" width="1016.95" height="1017.86" transform="scale(1 -1)" fill="url(#paint0_diamond_174_5)" opacity="0.8" shape-rendering="crispEdges"/><rect x="0" y="0" width="1016.95" height="1017.86" transform="scale(-1 1)" fill="url(#paint0_diamond_174_5)" opacity="0.8" shape-rendering="crispEdges"/><rect x="0" y="0" width="1016.95" height="1017.86" transform="scale(-1)" fill="url(#paint0_diamond_174_5)" opacity="0.8" shape-rendering="crispEdges"/></g></g><path d="M52.8613 11.2022C55.518 6.35412 62.482 6.35411 65.1387 11.2022L101.818 78.136C104.374 82.801 100.999 88.5 95.6793 88.5H22.3207C17.0012 88.5 13.6256 82.801 16.182 78.136L52.8613 11.2022Z" data-figma-gradient-fill="{&#34;type&#34;:&#34;GRADIENT_DIAMOND&#34;,&#34;stops&#34;:[{&#34;color&#34;:{&#34;r&#34;:0.49903839826583862,&#34;g&#34;:0.0,&#34;b&#34;:0.0,&#34;a&#34;:1.0},&#34;position&#34;:0.0},{&#34;color&#34;:{&#34;r&#34;:0.83846163749694824,&#34;g&#34;:0.19349114596843719,&#34;b&#34;:0.19349114596843719,&#34;a&#34;:1.0},&#34;position&#34;:0.54807692766189575},{&#34;color&#34;:{&#34;r&#34;:1.0,&#34;g&#34;:0.25769218802452087,&#34;b&#34;:0.25769218802452087,&#34;a&#34;:1.0},&#34;position&#34;:0.94230771064758301}],&#34;stopsVar&#34;:[{&#34;color&#34;:{&#34;r&#34;:0.49903839826583862,&#34;g&#34;:0.0,&#34;b&#34;:0.0,&#34;a&#34;:1.0},&#34;position&#34;:0.0},{&#34;color&#34;:{&#34;r&#34;:0.83846163749694824,&#34;g&#34;:0.19349114596843719,&#34;b&#34;:0.19349114596843719,&#34;a&#34;:1.0},&#34;position&#34;:0.54807692766189575},{&#34;color&#34;:{&#34;r&#34;:1.0,&#34;g&#34;:0.25769218802452087,&#34;b&#34;:0.25769218802452087,&#34;a&#34;:1.0},&#34;position&#34;:0.94230771064758301}],&#34;transform&#34;:{&#34;m00&#34;:6.8580225862351768e-15,&#34;m01&#34;:-112.0,&#34;m02&#34;:115.0,&#34;m10&#34;:118.0,&#34;m11&#34;:7.2254163508431515e-15,&#34;m12&#34;:-7.2254163508431515e-15},&#34;opacity&#34;:0.80000001192092896,&#34;blendMode&#34;:&#34;NORMAL&#34;,&#34;visible&#34;:true}" shape-rendering="crispEdges"/>
<path d="M53.2998 11.4424C55.7667 6.94071 62.2333 6.9407 64.7002 11.4424L101.38 78.376C103.754 82.7076 100.619 87.9997 95.6797 88H22.3203C17.381 87.9997 14.2464 82.7076 16.6201 78.376L53.2998 11.4424Z" stroke="#A03939" stroke-opacity="0.35" shape-rendering="crispEdges"/>
</g>
<mask id="path-3-outside-1_174_5" maskUnits="userSpaceOnUse" x="53" y="30" width="12" height="47" fill="black">
<rect fill="white" x="53" y="30" width="12" height="47"/>
<path d="M60.28 62.072H58.04C58.04 59.1707 57.9547 56.632 57.784 54.456C57.6133 52.28 57.4 50.3173 57.144 48.568C56.888 46.776 56.632 45.048 56.376 43.384C56.12 41.72 55.9067 39.9493 55.736 38.072C55.5653 36.152 55.48 33.9547 55.48 31.48H62.84C62.84 33.9547 62.7547 36.152 62.584 38.072C62.4133 39.9493 62.2 41.72 61.944 43.384C61.688 45.048 61.432 46.776 61.176 48.568C60.92 50.3173 60.7067 52.28 60.536 54.456C60.3653 56.632 60.28 59.1707 60.28 62.072ZM59.128 75.64C57.8053 75.64 56.7173 75.2347 55.864 74.424C55.0533 73.5707 54.648 72.4613 54.648 71.096C54.648 69.7307 55.0533 68.6427 55.864 67.832C56.7173 67.0213 57.8053 66.616 59.128 66.616C60.4507 66.616 61.5387 67.0213 62.392 67.832C63.2453 68.6427 63.672 69.7307 63.672 71.096C63.672 72.4613 63.2453 73.5707 62.392 74.424C61.5387 75.2347 60.4507 75.64 59.128 75.64Z"/>
</mask>
<g filter="url(#filter1_i_174_5)">
<path d="M60.28 62.072H58.04C58.04 59.1707 57.9547 56.632 57.784 54.456C57.6133 52.28 57.4 50.3173 57.144 48.568C56.888 46.776 56.632 45.048 56.376 43.384C56.12 41.72 55.9067 39.9493 55.736 38.072C55.5653 36.152 55.48 33.9547 55.48 31.48H62.84C62.84 33.9547 62.7547 36.152 62.584 38.072C62.4133 39.9493 62.2 41.72 61.944 43.384C61.688 45.048 61.432 46.776 61.176 48.568C60.92 50.3173 60.7067 52.28 60.536 54.456C60.3653 56.632 60.28 59.1707 60.28 62.072ZM59.128 75.64C57.8053 75.64 56.7173 75.2347 55.864 74.424C55.0533 73.5707 54.648 72.4613 54.648 71.096C54.648 69.7307 55.0533 68.6427 55.864 67.832C56.7173 67.0213 57.8053 66.616 59.128 66.616C60.4507 66.616 61.5387 67.0213 62.392 67.832C63.2453 68.6427 63.672 69.7307 63.672 71.096C63.672 72.4613 63.2453 73.5707 62.392 74.424C61.5387 75.2347 60.4507 75.64 59.128 75.64Z" fill="#960000"/>
</g>
<path d="M60.28 62.072V63.072H61.28V62.072H60.28ZM58.04 62.072H57.04V63.072H58.04V62.072ZM57.144 48.568L56.154 48.7094L56.1545 48.7128L57.144 48.568ZM56.376 43.384L57.3644 43.2319V43.2319L56.376 43.384ZM55.736 38.072L54.7399 38.1605L54.7401 38.1625L55.736 38.072ZM55.48 31.48V30.48H54.48V31.48H55.48ZM62.84 31.48H63.84V30.48H62.84V31.48ZM62.584 38.072L63.5799 38.1625L63.5801 38.1605L62.584 38.072ZM61.944 43.384L62.9324 43.5361V43.5361L61.944 43.384ZM61.176 48.568L62.1655 48.7128L62.1659 48.7094L61.176 48.568ZM60.536 54.456L59.5391 54.3778V54.3778L60.536 54.456ZM55.864 74.424L55.139 75.1128L55.1567 75.1313L55.1753 75.149L55.864 74.424ZM55.864 67.832L55.1753 67.107L55.166 67.1158L55.1569 67.1249L55.864 67.832ZM62.392 67.832L61.7033 68.557V68.557L62.392 67.832ZM62.392 74.424L63.0807 75.149L63.09 75.1402L63.0991 75.1311L62.392 74.424ZM60.28 62.072V61.072H58.04V62.072V63.072H60.28V62.072ZM58.04 62.072H59.04C59.04 59.1525 58.9542 56.5867 58.7809 54.3778L57.784 54.456L56.7871 54.5342C56.9552 56.6773 57.04 59.1889 57.04 62.072H58.04ZM57.784 54.456L58.7809 54.3778C58.6089 52.1845 58.3933 50.1991 58.1335 48.4232L57.144 48.568L56.1545 48.7128C56.4067 50.4356 56.6178 52.3755 56.7871 54.5342L57.784 54.456ZM57.144 48.568L58.1339 48.4266C57.8775 46.6313 57.621 44.8997 57.3644 43.2319L56.376 43.384L55.3876 43.5361C55.643 45.1963 55.8985 46.9207 56.1541 48.7094L57.144 48.568ZM56.376 43.384L57.3644 43.2319C57.1119 41.5906 56.9009 39.8406 56.7319 37.9815L55.736 38.072L54.7401 38.1625C54.9124 40.0581 55.1281 41.8494 55.3876 43.5361L56.376 43.384ZM55.736 38.072L56.7321 37.9835C56.5646 36.0998 56.48 33.9329 56.48 31.48H55.48H54.48C54.48 33.9764 54.566 36.2042 54.7399 38.1605L55.736 38.072ZM55.48 31.48V32.48H62.84V31.48V30.48H55.48V31.48ZM62.84 31.48H61.84C61.84 33.9329 61.7554 36.0998 61.5879 37.9835L62.584 38.072L63.5801 38.1605C63.754 36.2042 63.84 33.9764 63.84 31.48H62.84ZM62.584 38.072L61.5881 37.9815C61.4191 39.8406 61.2081 41.5906 60.9556 43.2319L61.944 43.384L62.9324 43.5361C63.1919 41.8494 63.4076 40.0581 63.5799 38.1625L62.584 38.072ZM61.944 43.384L60.9556 43.2319C60.699 44.8997 60.4425 46.6313 60.1861 48.4266L61.176 48.568L62.1659 48.7094C62.4215 46.9207 62.677 45.1963 62.9324 43.5361L61.944 43.384ZM61.176 48.568L60.1865 48.4232C59.9267 50.1991 59.7111 52.1845 59.5391 54.3778L60.536 54.456L61.5329 54.5342C61.7022 52.3755 61.9133 50.4356 62.1655 48.7128L61.176 48.568ZM60.536 54.456L59.5391 54.3778C59.3658 56.5867 59.28 59.1525 59.28 62.072H60.28H61.28C61.28 59.1889 61.3648 56.6773 61.5329 54.5342L60.536 54.456ZM59.128 75.64V74.64C58.0273 74.64 57.1967 74.3108 56.5528 73.699L55.864 74.424L55.1753 75.149C56.2379 76.1586 57.5834 76.64 59.128 76.64V75.64ZM55.864 74.424L56.589 73.7353C55.983 73.0974 55.648 72.249 55.648 71.096H54.648H53.648C53.648 72.6737 54.1236 74.0439 55.139 75.1128L55.864 74.424ZM54.648 71.096H55.648C55.648 69.9416 55.9832 69.127 56.5711 68.5391L55.864 67.832L55.1569 67.1249C54.1235 68.1583 53.648 69.5198 53.648 71.096H54.648ZM55.864 67.832L56.5528 68.557C57.1967 67.9452 58.0273 67.616 59.128 67.616V66.616V65.616C57.5834 65.616 56.2379 66.0974 55.1753 67.107L55.864 67.832ZM59.128 66.616V67.616C60.2287 67.616 61.0593 67.9452 61.7033 68.557L62.392 67.832L63.0807 67.107C62.0181 66.0974 60.6726 65.616 59.128 65.616V66.616ZM62.392 67.832L61.7033 68.557C62.3257 69.1483 62.672 69.957 62.672 71.096H63.672H64.672C64.672 69.5044 64.165 68.1371 63.0807 67.107L62.392 67.832ZM63.672 71.096H62.672C62.672 72.2341 62.3254 73.0763 61.6849 73.7169L62.392 74.424L63.0991 75.1311C64.1652 74.065 64.672 72.6886 64.672 71.096H63.672ZM62.392 74.424L61.7033 73.699C61.0593 74.3108 60.2287 74.64 59.128 74.64V75.64V76.64C60.6726 76.64 62.0181 76.1586 63.0807 75.149L62.392 74.424Z" fill="#860000" mask="url(#path-3-outside-1_174_5)"/>
<path d="M54.5692 11.4739C56.4398 7.89628 61.5602 7.89629 63.4308 11.4739L75.9588 35.4332C77.6995 38.7622 75.2846 42.75 71.5279 42.75H46.4721C42.7154 42.75 40.3005 38.7622 42.0412 35.4332L54.5692 11.4739Z" fill="url(#paint1_linear_174_5)" fill-opacity="0.83"/>
<path d="M100.675 79.2816C102.945 82.6204 100.526 87.1334 96.4892 87.0922L69.4536 86.8162C65.6972 86.7778 63.3231 82.7656 65.0977 79.4545L76.9337 57.3705C78.7083 54.0594 83.3639 53.8147 85.4758 56.9216L100.675 79.2816Z" fill="url(#paint2_linear_174_5)" fill-opacity="0.35"/>
<path d="M20.7026 86.8504C16.6655 86.8541 14.2887 82.3188 16.5892 79.0013L31.9958 56.7834C34.1365 53.6963 38.7896 53.9842 40.5333 57.3117L52.1637 79.5047C53.9074 82.8321 51.4962 86.8221 47.7396 86.8256L20.7026 86.8504Z" fill="url(#paint3_linear_174_5)" fill-opacity="0.35"/>
<defs>
<filter id="filter0_d_174_5" x="13.4107" y="7.56612" width="91.1785" height="89.8339" filterUnits="userSpaceOnUse" color-interpolation-filters="sRGB">
<feFlood flood-opacity="0" result="BackgroundImageFix"/>
<feColorMatrix in="SourceAlpha" type="matrix" values="0 0 0 0 0 0 0 0 0 0 0 0 0 0 0 0 0 0 127 0" result="hardAlpha"/>
<feOffset dy="7"/>
<feGaussianBlur stdDeviation="0.95"/>
<feComposite in2="hardAlpha" operator="out"/>
<feColorMatrix type="matrix" values="0 0 0 0 0.604868 0 0 0 0 0.110892 0 0 0 0 0 0 0 0 1 0"/>
<feBlend mode="normal" in2="BackgroundImageFix" result="effect1_dropShadow_174_5"/>
<feBlend mode="normal" in="SourceGraphic" in2="effect1_dropShadow_174_5" result="shape"/>
</filter>
<clipPath id="paint0_diamond_174_5_clip_path"><path d="M52.8613 11.2022C55.518 6.35412 62.482 6.35411 65.1387 11.2022L101.818 78.136C104.374 82.801 100.999 88.5 95.6793 88.5H22.3207C17.0012 88.5 13.6256 82.801 16.182 78.136L52.8613 11.2022Z"/></clipPath><filter id="filter1_i_174_5" x="53.648" y="30.48" width="11.024" height="50.16" filterUnits="userSpaceOnUse" color-interpolation-filters="sRGB">
<feFlood flood-opacity="0" result="BackgroundImageFix"/>
<feBlend mode="normal" in="SourceGraphic" in2="BackgroundImageFix" result="shape"/>
<feColorMatrix in="SourceAlpha" type="matrix" values="0 0 0 0 0 0 0 0 0 0 0 0 0 0 0 0 0 0 127 0" result="hardAlpha"/>
<feOffset dy="4"/>
<feGaussianBlur stdDeviation="2"/>
<feComposite in2="hardAlpha" operator="arithmetic" k2="-1" k3="1"/>
<feColorMatrix type="matrix" values="0 0 0 0 0 0 0 0 0 0 0 0 0 0 0 0 0 0 0.25 0"/>
<feBlend mode="normal" in2="shape" result="effect1_innerShadow_174_5"/>
</filter>
<linearGradient id="paint0_diamond_174_5" x1="0" y1="0" x2="500" y2="500" gradientUnits="userSpaceOnUse">
<stop stop-color="#7F0000"/>
<stop offset="0.548077" stop-color="#D63131"/>
<stop offset="0.942308" stop-color="#FF4242"/>
</linearGradient>
<linearGradient id="paint1_linear_174_5" x1="59" y1="3" x2="59" y2="56" gradientUnits="userSpaceOnUse">
<stop stop-color="white" stop-opacity="0.59"/>
<stop offset="0.5" stop-color="white" stop-opacity="0.02"/>
<stop offset="1" stop-color="white" stop-opacity="0"/>
</linearGradient>
<linearGradient id="paint2_linear_174_5" x1="106.051" y1="87.1898" x2="59.3373" y2="62.1534" gradientUnits="userSpaceOnUse">
<stop stop-color="white" stop-opacity="0.59"/>
<stop offset="0.5" stop-color="white" stop-opacity="0.02"/>
<stop offset="1" stop-color="white" stop-opacity="0"/>
</linearGradient>
<linearGradient id="paint3_linear_174_5" x1="11.1403" y1="86.8592" x2="58.0846" y2="62.2578" gradientUnits="userSpaceOnUse">
<stop stop-color="white" stop-opacity="0.59"/>
<stop offset="0.5" stop-color="white" stop-opacity="0.02"/>
<stop offset="1" stop-color="white" stop-opacity="0"/>
</linearGradient>
</defs>
</svg>
